<svg xmlns="http://www.w3.org/2000/svg" xmlns:xlink="http://www.w3.org/1999/xlink" viewBox="0 0 68.07 34.39"><defs><style>.cls-1{fill:none;}.cls-2{clip-path:url(#clip-path);}.cls-3{fill:#e72f2e;}.cls-4{fill:#fff;}.cls-5{fill:#006ab6;}</style><clipPath id="clip-path"><path class="cls-1" d="M11.13.2A2.39,2.39,0,0,0,8.77,2L3.22,32.43a1.55,1.55,0,0,0,1.71,1.76H53.72a2.39,2.39,0,0,0,2.36-1.76L61.62,2A1.55,1.55,0,0,0,59.91.2Z"/></clipPath></defs><title>Asset 2</title><g id="Layer_2" data-name="Layer 2"><g id="Layer_1-2" data-name="Layer 1"><g class="cls-2"><polygon class="cls-3" points="4.1 11.46 66.02 11.46 68.07 0 6.15 0 4.1 11.46"/><polygon class="cls-4" points="2.05 22.93 63.97 22.93 66.02 11.46 4.1 11.46 2.05 22.93"/><polygon class="cls-5" points="0 34.39 61.92 34.39 63.97 22.93 2.05 22.93 0 34.39"/></g></g></g></svg>