<svg xmlns="http://www.w3.org/2000/svg" xmlns:xlink="http://www.w3.org/1999/xlink" viewBox="0 0 43.47 22.7"><defs><style>.cls-1{fill:none;}.cls-2{clip-path:url(#clip-path);}.cls-3{fill:#e72f2e;}.cls-4{fill:#fff;}.cls-5{fill:#006ab6;}</style><clipPath id="clip-path" transform="translate(0 0)"><path class="cls-1" d="M11.67,0A5.76,5.76,0,0,0,6.25,4.57L3.71,18.14a3.68,3.68,0,0,0,3.71,4.56H31.79a5.76,5.76,0,0,0,5.42-4.56L39.75,4.57A3.68,3.68,0,0,0,36,0Z"/></clipPath></defs><title>Asset 3</title><g id="Layer_2" data-name="Layer 2"><g id="Layer_1-2" data-name="Layer 1"><g class="cls-2"><polygon class="cls-3" points="2.62 7.57 42.16 7.57 43.47 0 3.93 0 2.62 7.57"/><polygon class="cls-4" points="1.31 15.14 40.85 15.14 42.16 7.57 2.62 7.57 1.31 15.14"/><polygon class="cls-5" points="0 22.7 39.54 22.7 40.85 15.14 1.31 15.14 0 22.7"/></g></g></g></svg>